<svg width="89" height="86" viewBox="0 0 89 86" fill="none" xmlns="http://www.w3.org/2000/svg">
<path d="M83.8 1.70002C83.4 1.00002 82.6 0.500024 81.7 0.500024C69.9 0.500024 58 0.400024 46.2 0.400024C46 0.400024 44.8 0.700024 43.9 2.50002C39.4 10 38 20.8 39.3 29C40.7 37.8 47.6 46 56.4 48C57.7 48.3 59.1 48.6 60.6 48.7C61 53 61.7 57.8 60.2 61.8C59.4 63.9 58 65.3 56.3 66.4C56 66.6 55.6 66.7 55.7 66.5C58.1 62.8 57.8 57.9 55.2 54.4C52.6 51 48.1 49.5 44 50.3C43.1 50.5 42.2 50.8 41.4 51.3C40.6 48.8 38.8 46.5 36.7 45.2C37.2 44.6 37.6 43.9 37.8 43.3C39.3 39.9 38.8 35.8 36.9 32.7C34.6 29.2 30.8 26.6 27.1 24.7C23 22.6 18.1 21.8 14.7 18.5C13.1 16.9 10.2 19 11.5 21C13.4 23.8 12.8 27.1 12.7 30.3C12.6 32.8 13 35.2 13.8 37.5C12.5 38.1 11.4 38.9 10.4 39.9C7.19999 43.3 5.99999 50.3 10.6 53.1C11.6 53.7 13.1 52.7 12.7 51.5C12.2 50.1 11.3 48.9 11.3 47.4C11.3 45.7 12.2 43.9 13.4 42.8C15 41.2 17.4 40.5 19.6 40.9C23.1 41.6 25.4 44.1 24.7 47.8C24.1 51.2 20.6 54.4 17 53.1C16.7 53 16.5 53 16.3 53C16.1 53 15.9 52.9 15.7 52.9C12.5 53.1 10.3 55.5 9.49999 58.5C9.29999 59.3 9.19999 60.2 9.29999 61C6.19999 60.9 3.09999 62.1 1.39999 65.1C-0.800013 69.1 -0.600013 74.5 3.39999 77.3C6.19999 79.3 9.89999 79.2 12.9 77.7C13.1 78.5 13.3 79.2 13.6 79.9C15.5 84.1 19.2 86.3 23.8 85.8C27.3 85.5 31.3 82.9 31.2 79.1C34.7 80.6 39 80.7 40.6 76.9C40.9 76.1 40.6 74.9 39.5 75C36.2 75.3 33.6 76.7 30.8 74.1C28 71.4 27.8 67.6 30.4 64.7C34.6 60.3 43.9 64.4 41.1 70.7C39.8 73.7 44.1 76.3 45.6 73.3C45.7 73 45.9 72.7 46 72.4C46.1 72.4 46.2 72.4 46.4 72.4C58.1 72.4 69.7 72.5 81.4 72.5C83.5 72.5 84.1 69.1 81.9 68.8C76.9 68 70.7 66.4 68.5 61.2C66.9 57.3 67.9 52.5 68.5 48.3C72.8 47.8 76.9 46.4 80.2 43.5C86.1 38.4 89.2 29.4 88.8 21.8C88.5 15.5 87 7.80002 83.8 1.70002ZM22.6 37.7C21.3 37.2 19.9 36.9 18.5 36.8C16.7 33.1 17.3 29 16.9 25C20.2 26.6 23.9 27.8 27 29.7C29.7 31.4 32.8 33.7 33.8 36.8C34.3 38.3 34.2 40.1 33.7 41.6C33.3 42.7 32.7 43.3 32 43.8C32 41.1 31.8 38.6 30.2 36.2C28.7 34 27.3 32 24.5 31.6C24 31.5 23.5 31.9 23.7 32.4C24.3 34.3 25.6 35.7 26.7 37.3C27.8 39.1 28.1 40.7 28.2 42.5C27.1 40.5 25.2 38.7 22.6 37.7ZM5.89999 74.2C3.19999 72.7 2.99999 68.9 4.89999 66.6C6.19999 65 8.99999 64.4 10.9 64.9C13.3 65.5 14.7 68.2 14.4 70.5C13.6 75.4 8.09999 75.5 5.89999 74.2ZM13.7 62.6C13.4 61.7 13.2 61 13.5 59.9C13.7 59 14.3 58.1 15 57.5C15.2 57.7 15.5 57.8 15.8 57.9C18.4 58.6 21 58.1 23.2 56.9C23.9 57.1 24.6 57.2 25.2 57.7C26.2 58.5 26.9 60.3 26.6 61.5C26.6 61.5 26.6 61.5 26.6 61.6C24.9 63.6 24 66 24 68.4C22 67.6 19.5 67.6 17.5 68.4C17.3 65.8 15.8 63.8 13.7 62.6ZM25.5 81.2C23.4 82.5 20 82 18.5 80C16.9 77.9 16 75 18 72.9C19.9 70.9 22.1 71.5 24.4 71.8C24.9 73.5 25.7 75.1 26.9 76.5C27.2 76.8 27.9 77.9 28 78.1C27.6 79.9 26.6 80.5 25.5 81.2ZM38 54.6C37.4 55.5 37 56.5 36.7 57.5C34.8 57.4 32.9 57.7 31.2 58.3C30.7 56.8 29.7 55.4 28.5 54.4C28.1 54.1 27.6 53.8 27 53.5C27.6 52.7 28.1 51.8 28.4 50.8C28.7 49.9 28.9 49.1 29 48.3C29.6 48.3 30.1 48.2 30.7 48.1C31.9 48 33.2 48.2 34.3 48.6C36.8 49.4 38.3 52.1 38 54.6ZM52 64.4C50.9 66.1 48.9 67 47 67.8C47 64.7 45.8 61.7 43 59.7C42.4 59.2 41.7 58.9 41 58.5C41.7 56.6 43 55 45.2 54.6C47.7 54.2 50.5 55.2 51.9 57.4C53.2 59.5 53.3 62.3 52 64.4ZM69.8 69.2C65.9 69.2 62.1 69.2 58.2 69.2C60.1 68 61.7 66.4 62.8 64.2C63.2 63.3 63.5 62.4 63.7 61.5C64 62.5 64.4 63.4 64.9 64.3C66.2 66.4 67.9 68 69.8 69.2ZM71.3 43.2C66.8 44.6 61.1 44.6 56.6 43.4C51.7 42 47.7 38.1 45.4 33.6C43 29.1 43.1 23.7 43.5 18.7C43.9 14 45.6 9.90002 46.7 5.50002C57.9 5.50002 69 5.40002 80.2 5.40002C82.7 10.7 83.8 17.3 83.8 22.9C84 30.9 79.5 40.6 71.3 43.2Z" fill="black"/>
<path d="M77.9 20.2C75.4 21.5 72.7 22.3 69.9 22.4C67.8 22.4 65.9 21.6 63.9 20.9C59.8 19.4 55.7 17.9 51.3 19C48.6 19.7 45.5 21.7 45.4 24.7C45.3 26.1 45.9 27.8 46.3 29.1C48.4 35.4 53.4 39.9 59.9 41.1C67 42.4 74.3 40.4 78.2 34C80.4 30.2 81.5 25.4 81.3 21C81.2 19.1 78.6 18.8 77.9 20.2ZM63.7 38.1C57.5 38 52.1 34.8 49.8 28.9C49.4 27.9 48.7 25.9 48.8 25C49.3 21.9 54.7 21.9 56.9 22.3C60.6 22.9 63.8 25 67.5 25.7C70.8 26.3 74.5 25.5 77.6 24C77 31.6 72.3 38.3 63.7 38.1Z" fill="black"/>
</svg>
