<svg width="86" height="90" viewBox="0 0 86 90" fill="none" xmlns="http://www.w3.org/2000/svg">
<path d="M53.7 2.70004C53.2 2.00004 52.3 1.80004 51.6 2.40004C45.7 8.10004 40.2 14.6 35.2 21C33.8 21.5 33.5 23.9 35.3 24.2C38.8 24.8 42 25.7 45.6 25.1C48.4 24.6 51.6 23.8 53.7 21.8C58.9 16.8 57.5 7.90003 53.7 2.70004ZM52.3 5.50004C53 6.80004 53.6 8.40003 54 9.90003C51.7 10 49.4 10.4 47.2 11.1C48.8 9.20004 50.5 7.30004 52.3 5.50004ZM37.8 21.4C39.6 19.7 41.3 17.9 42.9 16C43 16.7 43.1 17.4 43.1 18C43.2 19.3 43.2 20.9 43.5 22.2C41.7 22.2 39.7 21.9 37.8 21.4ZM50.8 20.3C49.5 21.1 48.1 21.7 46.7 21.9C46.7 20.5 46.2 18.9 46 17.6C45.8 16.5 45.7 15.3 45.4 14.1C47.5 15.9 50.1 17.4 52.5 18.7C52.1 19.4 51.5 19.9 50.8 20.3ZM53.5 17.2C51.4 15.6 49.1 14 46.7 12.8C49.2 12.4 51.7 12.3 54.3 12.1C54.4 13.9 54.2 15.7 53.5 17.2Z" fill="black"/>
<path d="M56.4 27.9C56.4 27.7 56.2 27.5 56.1 27.3C55.7 26.9 55 26.7 54.5 27.1C53.8 27.6 53 28.2 52.2 29C51.9 28.8 51.5 28.7 51.1 28.6C49.6 28.2 47.9 28.4 46.6 29.3C43.5 31.5 44 36.3 46.2 38.9C48.6 41.7 52.8 41.6 55.3 38.8C57.6 36.1 56.6 32.8 54.5 30.4C54.9 30.1 55.3 29.7 55.8 29.4C56.3 29.1 56.5 28.5 56.4 27.9ZM53.3 37.1C51.8 38.8 49.3 38.5 48.1 36.6C47.3 35.3 47 32.7 48.4 31.7C48.9 31.3 49.5 31.4 50.1 31.5C49.6 32.4 49.4 33.4 49.5 34.4C49.6 35.1 50.6 35.2 51 34.8C51.6 34.3 51.9 33.5 52.3 32.8C53.7 33.9 54.6 35.7 53.3 37.1Z" fill="black"/>
<path d="M31.6 5.80004C32.1 7.60004 34 8.80004 35.9 8.20004C38 7.60004 38.6 5.40004 38.5 3.40004C38.3 1.00004 36 0.300035 33.9 0.400035C32.6 0.500035 32.1 1.50004 32.2 2.40004C31.6 3.40004 31.3 4.60004 31.6 5.80004ZM33.1 3.80004C33.4 4.00004 33.9 4.10004 34.4 3.90004C34.9 3.80004 35.8 3.50004 36.1 3.90004C36.4 4.20004 36.4 5.40003 36.3 5.70004C36.2 6.20004 35.7 6.60004 35.2 6.70004C34 7.00004 33 5.80004 33 4.60004C33 4.30004 33 4.10004 33.1 3.80004Z" fill="black"/>
<path d="M27.2 9.40003C25.7 8.80003 24.2 8.90003 22.6 9.00004C19.7 9.30004 17.3 9.10004 14.9 7.10004C13.8 6.20004 11.9 7.00004 12.4 8.60004C13.8 13.2 16.1 17.6 20.4 20.1C23.8 22.1 29.3 23 32.1 19.7C32.2 19.6 32.2 19.5 32.3 19.4C33.2 19.3 34 18.7 33.6 17.7C32.3 14.3 30.7 10.8 27.2 9.40003ZM25.7 19C23.8 18.8 22 18 20.6 16.7C18.9 15.3 17.7 13.4 16.8 11.4C18 11.8 19.3 12.1 20.7 12C22.7 12 24.7 11.1 26.7 12.1C27.8 12.6 28.5 13.5 29.2 14.5C27.3 13.8 25.3 13.5 23.1 13.5C21 13.5 21.3 16.8 23.5 16.4C26.1 15.8 28.6 16.8 30.6 18.3C28.8 18.7 27.4 19.2 25.7 19Z" fill="black"/>
<path d="M25 42.5C30.4 46.9 36.6 46.3 42.5 43.4C43.4 43 43.3 41.8 42.8 41.2C37.8 35.2 32.2 29.5 25.9 25C25.2 23.8 22.8 23.7 22.1 25.4C20 31 19.9 38.4 25 42.5ZM35.2 37C36.7 38.5 38.1 40.1 39.5 41.6C38 42.2 36.5 42.5 35.1 42.6C35.1 41.7 35.3 38 35.2 37ZM32.6 42.4C31 42.1 29.5 41.4 28.1 40.1C28.2 40 32 36.9 32.8 36.3C32.5 37.4 32.6 41.6 32.6 42.4ZM25.5 27.8C27.4 29.5 29.3 31.2 31.1 32.9C29.1 31.9 26.9 31.2 24.8 30.6C25 29.7 25.2 28.8 25.5 27.8ZM31.2 35C30.5 35.6 27.5 38.1 26.7 38.8C25.6 37.4 25 35.8 24.8 34.1C26.8 34.5 29 34.9 31.2 35Z" fill="black"/>
<path d="M82.1 25.3C79.7 29.6 76.6 33.4 73.3 36.9C71.7 38.6 70 40.2 68.1 41.6C67.2 42.3 64.5 43.9 62.9 42.8C62.5 42.5 62.3 41.9 62.5 40.9C62.8 39.1 65.3 37 66.6 35.6C68.2 33.8 69.9 32 71.7 30.3C73.4 28.6 75.1 27 76.9 25.4C78.4 24 79.3 23 81.5 23.5C82.7 23.8 83.4 22.6 82.9 21.6C80 14.9 72.1 24.9 70 27.1C67.3 29.8 64.6 32.5 62.2 35.4C60.6 37.4 58.6 39.5 58.9 42.2C59 42.9 59.3 43.6 59.7 44.2C58.4 45.2 57.3 46.6 56.4 47.6C54.9 49.1 53.4 50.7 51.8 52.2C51.8 52.2 51.7 52.3 51.7 52.4C44.2 52.4 36.6 52.3 29.1 52.3C28.9 51 28.5 49.7 27.8 48.6C27.3 47.8 26.6 47 25.8 46.4C25.2 46 23.7 45.5 23.3 44.9C22.7 44.1 22.7 42.5 22.3 41.6C21.9 40.7 21.3 39.9 20.5 39.2C19.5 38.4 18.6 38.1 17.4 37.9C15.8 37.6 15.8 37.4 15.1 35.8C13.6 32.5 9.59998 28 6.09998 32C2.79998 35.8 4.79998 40.1 7.49998 43.5C5.79998 45.6 5.59998 49.5 6.59998 52.2C5.39998 52.2 4.19998 52.2 2.99998 52.2C0.399983 52.2 -0.200017 55.2 1.09998 56.7C1.99998 61.8 3.89998 66.7 6.69998 71C9.69998 75.5 13.5 78.7 17.6 82C18.6 82.8 19.6 83.7 20.2 84.8C20.6 85.6 20.6 86.7 21.1 87.5C21.9 88.7 23.3 89 24.6 89.1C26.8 89.3 60 89.3 60.7 89C63.4 88 62.5 86.2 63.4 84.1C64.3 82 67.3 80.7 69 79.2C71.2 77.2 73.2 74.8 75 72.4C78.9 67.2 81.4 61 81.4 54.4C81.4 53.3 80.5 52.4 79.4 52.4C72.1 52.4 64.8 52.4 57.6 52.4C58.2 51.8 58.8 51.1 59.4 50.5C60.4 49.4 62.1 48 63.1 46.5C63.3 46.6 63.6 46.6 63.8 46.7C66.5 47.2 68.9 45.4 70.8 43.9C76.5 39.3 80.7 33 84.8 27C85.9 25.2 83.1 23.5 82.1 25.3ZM9.29998 34.4C10.5 34.3 11.2 34.6 11.9 36C12.9 37.9 13.4 40.4 15.7 41C16.4 41.2 17.4 40.8 18.2 41.2C19.5 41.9 19.8 43.6 20.1 44.8C20.3 45.7 20.4 46.7 21.2 47.3C22.3 48.3 23.8 48.4 24.8 49.6C25.5 50.4 25.9 51.3 26.1 52.2C24.3 52.2 22.5 52.2 20.7 52.2C20.1 51.1 16.8 46.1 15.3 45.5C14.6 45.2 13.9 45.7 14 46.5C14.3 48 16.9 51.2 17.1 51.4C17 51.3 14 50.3 12.4 50.2C12 50.2 11.6 50.8 12 51.1C12.4 51.4 12.8 51.8 13.3 52.1C13 52.1 10.7 52.1 9.79998 52.1C8.29998 50.2 8.19998 46 10.4 45C11.4 44.6 11.3 43.2 10.7 42.5C9.29998 40.9 7.29998 38.7 7.39998 36.4C7.49998 35 7.89998 34.6 9.29998 34.4ZM69.7 56.4C72.2 56.4 74.7 56.4 77.2 56.4C76.8 61.4 74.7 65.9 71.9 70.1C70.4 72.4 68.6 74.5 66.5 76.3C64.9 77.6 63 78.6 61.5 80C60.4 81 59.1 82.5 59 84.1C58.9 85.5 54.7 85 53 85C46.7 85 29.1 85.2 26.6 85.1C26.1 85.1 24.9 85.3 24.5 85.1C24 84.8 23.6 83.3 23.1 82.3C34.1 82.6 45.1 82 56.1 82C58.1 82 58.1 78.9 56.1 78.9C44.3 78.9 20.1 78.8 19.9 78.9C18.9 78.1 13.1 73.2 11.5 71.1C8.29998 67 6.29998 62.3 4.79998 57.4C26.4 57.3 48.1 56.6 69.7 56.4Z" fill="black"/>
<path d="M62.5 71C63.9 69.9 65 68.2 66.1 66.8C67.1 65.5 68.6 63.8 68.8 62.1C68.9 61.1 67.9 59.8 66.8 60.6C65.3 61.6 64.5 63.4 63.4 64.7C62.2 66.1 60.8 67.4 59.7 68.8C58.4 70.6 61.1 72.2 62.5 71Z" fill="black"/>
<path d="M54.6 75.4C55.1 75.7 55.9 75.8 56.5 75.5C56.9 75.4 57.2 75.3 57.5 75C58.5 74.3 58.9 72.8 58.1 71.8C57.3 70.8 55.7 70.4 54.6 71.1C53.9 71.6 53.5 72.4 53.5 73.2C53.4 74.2 53.9 75 54.6 75.4Z" fill="black"/>
</svg>
