<svg width="89" height="88" viewBox="0 0 89 88" fill="none" xmlns="http://www.w3.org/2000/svg">
<path d="M19 62.6C18.2 63.4 16.5 67.4 16.2 68.3C15.8 69.8 17.8 70.5 18.6 69.3C19.2 68.5 21 64.5 21.1 63.4C21.2 62.4 19.7 61.9 19 62.6Z" fill="black"/>
<path d="M25.6 61.7C24.6 62.5 22.9 67.3 22.5 68.3C21.8 70.1 24.8 71 25.4 69.1C25.8 68.1 27.6 63.5 27.4 62.2C27.3 61.3 26.1 61.2 25.6 61.7Z" fill="black"/>
<path d="M87 66.6C85.7 62.8 82.8 59.5 79.1 58.2C79.4 58 79.7 57.8 80.1 57.6C80.6 57.3 81 56.7 80.9 56.2C80.2 48.5 75.8 40.7 68.9 37C69.1 36.9 74.5 35.4 74.7 33.9C74.9 32.8 75.4 26.6 74 26.2C71.8 25.6 68.2 25.3 65.9 25.5C63.5 25.7 61.3 27.5 59.2 28.7C58 27.8 56.8 26.9 55.5 26.1C55.8 24.6 56 23 55.9 21.5C55.9 20.4 54.5 20.3 54.1 21.3C53.2 23.6 52.8 26.1 52.3 28.5C51.9 30.3 54.7 31 55 29.2C55 28.9 55.1 28.7 55.1 28.4C55.7 28.9 56.4 29.4 57.1 29.9C55.8 30.6 54.6 31.6 54.5 33.1C54.5 33.6 54.6 34.2 54.7 34.6C54.1 34.9 53.5 35.2 52.8 35.5C51 36.3 52.6 39.1 54.4 38.2C55.1 37.9 55.8 37.5 56.5 37.2C56.8 37.5 57.1 37.8 57.4 38C58.8 39.2 59.9 39.8 61.1 39.8C65.7 46.6 67.7 56 61.5 62.6C58.8 65.4 54 66.6 50.5 64.4C47.8 62.7 46.2 58.1 48.1 55.3C49.7 54.9 51.1 54.2 52.3 53.2C55.1 50.7 54.8 46.8 51.6 44.8C49.9 43.8 47.9 43.6 45.9 43.5C46.6 42.6 47.3 41.7 48 40.8C48.9 39.7 50.3 38.5 50.5 37.1C51.1 34.1 50.2 10.2 50 1.60002C50 0.800024 49.3 0.100024 48.5 0.100024C36.6 2.39089e-05 24.7 0.200024 12.9 0.400024C11.2 0.400024 9.99999 0.300024 8.59999 1.20002C6.49999 2.60002 0.799993 5.30002 0.699993 6.90002C0.599993 8.90002 0.499993 22 0.499993 26.5C0.499993 32.4 -0.200007 38.9 1.29999 44.7C1.59999 45.8 2.59999 46.3 2.89999 46.3C5.69999 46.3 8.59999 46.3 11.4 46.3C11.1 48.4 12.1 50.3 13.7 51.8C10.6 53.6 7.29999 55.1 4.09999 56.7C1.49999 58 1.19999 60.5 0.199993 63.2C-7.26432e-06 63.8 0.199993 64.5 0.699993 64.9C1.69999 65.9 2.59999 66.4 3.59999 66.6C2.99999 68 2.49999 69.3 2.19999 70.7C1.79999 72.8 2.19999 74.7 4.39999 75C5.19999 75.1 5.99999 75.2 6.79999 75.3C6.49999 77.6 7.89999 80.1 9.19999 81.8C11.5 84.8 14.9 86.2 18.6 86.1C22.9 86 27.3 83.7 28.4 79.4C28.6 79.3 28.8 79.2 29 79.2C31.1 78.3 34.1 77.6 35.3 75.5C43 75.8 50.7 75.2 58.4 75C61.6 74.9 63.8 74.3 66.1 71.9C66.2 71.9 66.3 71.9 66.5 71.9C64.9 75.5 65.5 79.9 68.3 83.1C72.2 87.6 79.1 88.5 84.1 85.3C90.1 81.5 90.1 73 85.9 68.5C86.8 68.2 87.3 67.4 87 66.6ZM83.1 65.3C79 65.1 75 65 71.1 66C72.7 64 74.4 62 76.3 60.3C79.1 61.3 81.7 62.8 83.1 65.3ZM78 75.7C77.5 76 76.9 75.9 76.7 75.7C75.3 74.5 73.6 69.5 73.3 69C74 68.9 74.7 68.7 75.5 68.7C75.5 68.8 79.1 75 78 75.7ZM72 28.2C72 28.9 71.9 32.7 71.9 32.9C71.8 32.9 70.6 33.3 70.1 33.5C70 33.1 68.6 29.5 68 28.1C69.3 28.1 70.7 28.3 72 28.2ZM58.7 35.9C59.7 35.3 60.7 34.5 61.4 33.6C61.6 33.3 61.5 32.8 61.1 32.8C59.9 32.8 58.7 33.1 57.5 33.5C58.2 31.5 62.9 29.1 65.2 28.4C65.6 29.5 67.3 33.6 67.5 34.5C66.2 35.3 64.6 36 63.3 36.4C62 36.7 60 36.7 58.7 35.9ZM49.1 48C52.1 49.9 46.1 51.4 44.5 51.6C42.8 51.8 15.6 50.2 15.4 50.2C15 49.8 14.7 49.4 14.5 48.9C14.4 48.6 13.9 46.9 14 46.3C17 46.3 38.6 46.7 42.3 46.9C44.4 47.1 47.4 46.9 49.1 48ZM47.5 36.4C46.8 37 45 39.6 44.6 40C44.6 29.2 44.5 18.3 44.4 7.50002C44.8 7.10002 45.3 6.60002 45.7 6.20002C46.1 5.70002 46.6 5.30002 47 5.00002C47.1 12 47.2 35.6 47.5 36.4ZM29.1 2.80002C34.8 2.80002 40.4 2.80002 46.1 2.90002C45.5 3.50002 43.6 5.50002 43.2 5.90002C43.1 5.80002 31.6 5.70002 26 5.70002C26.3 5.40002 29.1 2.90002 29.1 2.80002ZM10.4 2.90002C11.4 2.80002 21.3 2.80002 25.3 2.80002C25.2 2.80002 22.4 4.50002 21.6 5.60002C17.2 5.60002 7.19999 5.50002 6.49999 5.50002C7.39999 5.00002 9.89999 3.20002 10.4 2.90002ZM3.49999 43C4.39999 37.8 3.89999 9.10002 3.89999 8.90002C4.09999 8.90002 18.2 8.90002 22.9 9.00002C29 9.00002 35 9.10002 41.1 9.20002C41.1 20.4 41.1 31.6 41.1 42.8C40.9 42.7 8.19999 43 3.49999 43ZM4.19999 62.9C4.49999 62 4.99999 61 5.09999 60.1C5.59999 60 7.99999 58.6 8.59999 58.3C8.29999 58.8 6.39999 61.5 5.89999 62.4C5.19999 62.9 4.69999 63.1 4.19999 62.9ZM16.8 82.6C13.7 82.2 11.4 79.8 10.4 76.9C10.3 76.5 10.2 76 10.1 75.4C10.8 75.4 11.4 75.4 12.1 75.5C12.5 75.5 12.9 75.5 13.2 75.5C12.6 79 17 81.2 20.4 81.2C21.5 81.2 22.5 81.1 23.5 80.9C21.8 82.4 19 82.9 16.8 82.6ZM23.1 77.5C22.2 77.7 21.3 78 20.4 78C19.5 78 15.5 77.9 16.6 75.6C20.4 75.7 24.2 75.6 28 75.6C26.5 76.3 24.9 77.1 23.1 77.5ZM32.8 72C27.6 72.3 5.29999 72.1 5.19999 72C5.79999 70.7 7.09999 66.4 7.39999 65.8C7.59999 65.7 11.2 63.3 12.8 62.4C15.4 61 18.4 60.4 21.2 59.9C26.6 58.9 33.8 58.6 36 65C37 68 36.3 71.8 32.8 72ZM66.4 66.4C64.5 68.8 62.9 71.4 59.7 71.7C59.1 71.8 58.4 71.8 57.7 71.8C51.4 72.1 45 72.3 38.7 72.2C40.9 68.6 40 62.8 36.8 59.4C32.2 54.5 25 55.1 19 56.3C16.7 56.7 14.6 57.4 12.5 58.3C13.5 57.1 14.6 56 15.5 54.8C15.7 54.7 16 54.5 16.2 54.4C24.4 54.6 32.6 55.4 40.8 55.7C41.7 55.7 42.7 55.8 43.7 55.7C42.8 58.9 44 62.7 46.1 65.3C49.3 69.3 55.5 69.8 59.9 67.7C70.6 62.5 70.5 47.2 63.9 38.9C64.4 38.7 65.1 38.5 65.7 38.3C71.7 42.6 76.4 47.7 77.3 55.3C73 58.1 69.7 62.1 66.4 66.4ZM83.3 81.7C76.3 87.5 65.3 78.9 71 71.4C71.3 72.1 73.8 77.7 74.3 78.4C75.2 79.5 76.5 80.3 77.9 80.1C79.6 79.9 81.4 78.7 81.7 76.9C81.8 76.2 81.7 75.4 81.5 74.7C81.4 74.4 79 68.6 78.9 68.4C79.3 68.4 79.7 68.4 80 68.4C82.6 69.4 84.6 70.5 85.6 73.8C86.5 76.8 85.7 79.8 83.3 81.7Z" fill="black"/>
<path d="M23.1 32.4C23.3 32.6 27.9 37.2 30.1 39.2C31.7 40.6 34 38.3 32.4 36.9C30.3 34.9 25.6 30.5 25.4 30.2C25.9 29.7 26.4 29.3 26.8 28.8C31.8 31.5 40.5 27 38.8 20.2C38.3 18.3 35.4 19.1 35.9 21C36.6 23.8 34 26 31.5 26.3C28.4 26.8 25.8 24.4 27.5 21.3C28.7 19.2 30.5 17.4 33 17.5C34.2 17.5 35.3 18.1 36.5 18C36.9 18 37.3 17.6 37.1 17.2C36.1 14.6 31.9 13.9 29.6 14.9C26.3 16.3 23.1 21.1 23.9 24.7C24.1 25.4 24.3 26.1 24.6 26.6C24.2 27 23.7 27.5 23.3 27.9C22.7 27.3 22 26.7 21.3 26.2C25.1 21.8 20.4 16 16.2 13.5C15.2 12.9 14.7 13.7 14.6 13.9C14.3 15.2 15.2 15.7 16 16.6C17.6 18.3 19.5 20.2 19.3 22.6C19 26 15.6 25.9 13.4 24.2C11.7 22.9 10.1 21.4 8.49999 20C6.89999 18.6 4.59999 20.9 6.19999 22.3C9.99999 25.6 14.4 30.7 19.3 27.8C19.8 28.6 20.3 29.4 21 30.1C19.9 31.1 18.8 32.2 17.7 33.2C16.3 34.5 14.5 35.9 13.5 37.6C13.1 38.3 13.8 39.4 14.6 39C16.4 38.3 18.1 36.7 19.5 35.4C20.7 34.5 21.9 33.4 23.1 32.4Z" fill="black"/>
<path d="M12.8 20.7C13.8 21.7 14.9 23.2 16.3 23.6C17.2 23.8 18.1 23 17.9 22C17.5 20.6 15.9 19.6 14.9 18.6C13.8 17.6 12.6 16.4 11.2 15.8C10.4 15.4 9.59999 16.2 9.99999 17C10.6 18.4 11.8 19.6 12.8 20.7Z" fill="black"/>
</svg>
